<?xml version="1.0" encoding="UTF-8"?><svg id="_レイヤー_1" xmlns="http://www.w3.org/2000/svg" viewBox="0 0 298.41 298.41"><defs><style>.cls-1,.cls-2,.cls-3{fill:#231815;}.cls-4,.cls-2,.cls-5,.cls-6,.cls-7{stroke-miterlimit:10;}.cls-4,.cls-2,.cls-6,.cls-7,.cls-8,.cls-9,.cls-3{stroke-width:4px;}.cls-4,.cls-2,.cls-7,.cls-8,.cls-9,.cls-3{stroke:#231815;}.cls-4,.cls-5,.cls-9{fill:#fff;}.cls-5{stroke-width:.25px;}.cls-5,.cls-6{stroke:#fff;}.cls-6,.cls-7{fill:none;}.cls-8{fill:#57c2de;}.cls-8,.cls-9,.cls-3{stroke-linejoin:round;}</style></defs><g><circle class="cls-2" cx="149.1" cy="157.57" r="48.61"/><polygon class="cls-3" points="295.34 49.77 295.34 11.74 229.73 11.74 229.73 163.4 295.34 49.77"/><polygon class="cls-8" points="229.53 11.77 295.34 49.77 295.34 11.74 229.53 11.77"/><circle class="cls-4" cx="149.3" cy="60.35" r="48.61"/><polygon class="cls-9" points="3.07 168.15 3.07 206.18 68.68 206.18 68.68 54.52 3.07 168.15"/><polygon class="cls-8" points="68.88 206.15 3.07 168.15 3.07 206.18 68.88 206.15"/><ellipse class="cls-7" cx="148.89" cy="84.76" rx="7.46" ry="12.24"/><path class="cls-1" d="M141.73,88.18c.9,5.09,3.77,8.82,7.16,8.82s6.35-3.84,7.21-9.06c-.84-3.17-3.72-5.51-7.15-5.51s-6.46,2.46-7.22,5.75Z"/><ellipse class="cls-6" cx="148.89" cy="133.35" rx="7.46" ry="12.24"/><path class="cls-5" d="M141.73,136.77c.9,5.09,3.77,8.82,7.16,8.82s6.35-3.84,7.21-9.06c-.84-3.17-3.72-5.51-7.15-5.51s-6.46,2.46-7.22,5.75Z"/></g><g><path class="cls-1" d="M25.11,258.73l-4.64,13.34c-2.27,6.32-3.88,9.88-6.18,12.12-1.75,1.61-3.53,2.27-4.47,2.48l-1.05-3.42c4.19-1.5,5.69-5.41,5.69-5.94,0-.21-.04-.45-.21-.84l-6.6-17.74h4.44l3.49,10.83c.38,1.26,.77,2.72,1.05,3.84h.11c.28-1.12,.66-2.55,1.01-3.84l3.11-10.83h4.26Z"/><path class="cls-1" d="M51.93,273.4c0,1.64,.04,3.32,.28,4.58h-3.67l-.28-2.24h-.1c-1.08,1.5-2.97,2.62-5.38,2.62-3.6,0-5.66-2.65-5.66-5.62,0-4.79,4.16-7.16,10.76-7.16,0-1.43,0-4.3-3.88-4.3-1.71,0-3.46,.52-4.68,1.33l-.84-2.69c1.36-.87,3.63-1.61,6.22-1.61,5.66,0,7.23,3.74,7.23,7.82v7.27Zm-3.95-5.1c-3.18,0-6.85,.59-6.85,4.02,0,2.13,1.33,3.07,2.83,3.07,2.2,0,4.02-1.68,4.02-3.91v-3.18Z"/><path class="cls-1" d="M77.07,262.36c-.77-.49-2.1-1.08-3.67-1.08-1.82,0-2.79,1.05-2.79,2.34s.87,1.99,3.21,3c3.18,1.29,4.86,3.04,4.86,5.83,0,3.7-2.83,5.9-7.2,5.9-2.03,0-3.95-.52-5.24-1.29l.91-3c.98,.59,2.76,1.29,4.4,1.29,2.17,0,3.21-1.05,3.21-2.52s-.8-2.27-3.11-3.25c-3.42-1.36-4.92-3.28-4.92-5.52,0-3.21,2.62-5.76,6.67-5.76,1.89,0,3.53,.52,4.58,1.12l-.91,2.93Z"/><path class="cls-1" d="M108.75,272.46c0,2.17,.1,3.98,.17,5.52h-3.56l-.21-2.79h-.11c-.8,1.33-2.69,3.18-5.8,3.18-3.32,0-6.22-2.06-6.22-8.21v-11.46h4.05v10.79c0,3.32,.94,5.52,3.6,5.52,1.85,0,4.02-1.47,4.02-4.37v-11.91h4.05v13.73Z"/><path class="cls-1" d="M143.85,276.89c-1.5,.59-4.44,1.36-7.61,1.36-11.56,0-13.03-9.19-13.03-13.45,0-8.66,5.69-13.83,13.69-13.83,2.62,0,4.89,.45,6.22,1.12l-.91,3.32c-1.26-.56-2.86-1.01-5.31-1.01-5.48,0-9.43,3.46-9.43,10.23s3.67,10.3,8.91,10.3c1.75,0,2.97-.24,3.56-.56v-7.54h-4.61v-3.25h8.52v13.31Z"/><path class="cls-1" d="M175.55,268.2c0,7.19-4.68,10.16-9.01,10.16-5,0-8.8-3.67-8.8-9.88s3.98-10.16,9.08-10.16,8.73,3.98,8.73,9.88Zm-8.87-6.85c-3.46,0-4.79,3.7-4.79,7.02,0,3.77,1.78,6.95,4.75,6.95s4.75-3.18,4.75-7.02c0-3.18-1.33-6.95-4.71-6.95Z"/><path class="cls-1" d="M216.45,277.97h-3.98v-11c0-3.21-1.05-5.34-3.49-5.34-1.85,0-3.74,1.68-3.74,4.47v11.88h-3.98v-11.6c0-2.69-1.01-4.75-3.35-4.75-1.82,0-3.88,1.64-3.88,4.68v11.67h-3.98v-13.83c0-2.17-.07-3.77-.14-5.41h3.49l.21,2.83h.1c.94-1.61,2.69-3.25,5.62-3.25,2.45,0,4.3,1.36,5.1,3.53h.07c1.29-2.13,3.18-3.53,5.94-3.53s6.01,1.96,6.01,8.03v11.63Z"/><path class="cls-1" d="M248.57,268.2c0,7.19-4.68,10.16-9.01,10.16-5,0-8.8-3.67-8.8-9.88s3.98-10.16,9.08-10.16,8.73,3.98,8.73,9.88Zm-8.87-6.85c-3.46,0-4.79,3.7-4.79,7.02,0,3.77,1.78,6.95,4.75,6.95s4.75-3.18,4.75-7.02c0-3.18-1.33-6.95-4.71-6.95Z"/><path class="cls-1" d="M272.74,262.29c-.35-.07-.73-.1-1.19-.1-2.72,0-4.44,2.24-4.44,5.59v10.2h-4.05v-13.38c0-2.24-.04-4.09-.14-5.87h3.53l.14,3.53h.14c.87-2.44,2.9-3.95,5-3.95,.38,0,.66,.04,1.01,.1v3.88Z"/><path class="cls-1" d="M288.38,255.76c-1.4,0-2.34-1.05-2.34-2.34,0-1.36,.98-2.38,2.38-2.38s2.34,1.01,2.34,2.38c0,1.29-.91,2.34-2.38,2.34Zm2.03,22.21h-4.05v-19.28h4.05v19.28Z"/></g></svg>