<svg xmlns="http://www.w3.org/2000/svg" width="76.461" height="51.216" viewBox="0 0 76.461 51.216">
  <g id="やすごもりロゴ" transform="translate(38.23 25.608)">
    <g id="グループ_23" data-name="グループ 23" transform="translate(-37.714 -25.092)">
      <ellipse id="楕円形_22" data-name="楕円形 22" cx="12.546" cy="12.546" rx="12.546" ry="12.546" transform="translate(25.143 25.092)" fill="#1a1311" stroke="#1a1311" stroke-miterlimit="10" stroke-width="1.032"/>
      <path id="パス_55" data-name="パス 55" d="M245.589,11.816V2H228.656V41.141Z" transform="translate(-170.16 -2)" fill="#1a1311" stroke="#1a1311" stroke-linejoin="round" stroke-width="1.032"/>
      <path id="パス_56" data-name="パス 56" d="M228.459,2.009l16.983,9.806V2Z" transform="translate(-170.014 -2)" fill="#3ab5db" stroke="#1a1311" stroke-linejoin="round" stroke-width="1.032"/>
      <ellipse id="楕円形_23" data-name="楕円形 23" cx="12.546" cy="12.546" rx="12.546" ry="12.546" transform="translate(25.194)" fill="#fff" stroke="#1a1311" stroke-miterlimit="10" stroke-width="1.032"/>
      <path id="パス_57" data-name="パス 57" d="M2,74.111v9.816H18.933V44.785Z" transform="translate(-2 -33.743)" fill="#fff" stroke="#1a1311" stroke-linejoin="round" stroke-width="1.032"/>
      <path id="パス_58" data-name="パス 58" d="M18.983,168.22,2,158.414v9.816Z" transform="translate(-2 -118.046)" fill="#3ab5db" stroke="#1a1311" stroke-linejoin="round" stroke-width="1.032"/>
      <ellipse id="楕円形_24" data-name="楕円形 24" cx="1.926" cy="3.159" rx="1.926" ry="3.159" transform="translate(35.708 15.686)" fill="none" stroke="#1a1311" stroke-miterlimit="10" stroke-width="1.032"/>
      <path id="パス_59" data-name="パス 59" d="M140.657,74.178c.233,1.315.972,2.276,1.849,2.276s1.639-.991,1.86-2.338a1.911,1.911,0,0,0-3.709.062Z" transform="translate(-104.872 -54.45)" fill="#1a1311"/>
      <ellipse id="楕円形_25" data-name="楕円形 25" cx="1.926" cy="3.159" rx="1.926" ry="3.159" transform="translate(35.708 28.228)" fill="none" stroke="#fff" stroke-miterlimit="10" stroke-width="1.032"/>
      <path id="パス_60" data-name="パス 60" d="M140.657,122.774c.233,1.315.972,2.276,1.849,2.276s1.639-.992,1.86-2.338a1.911,1.911,0,0,0-3.709.062Z" transform="translate(-104.872 -90.504)" fill="#fff" stroke="#fff" stroke-miterlimit="10" stroke-width="0.065"/>
      <path id="パス_61" data-name="パス 61" d="M148.033,196.446" transform="translate(-110.344 -146.263)" fill="#fff" stroke="#1a1311" stroke-miterlimit="10" stroke-width="0.25"/>
    </g>
  </g>
</svg>
