<?xml version="1.0" encoding="UTF-8"?><svg id="_レイヤー_1" xmlns="http://www.w3.org/2000/svg" viewBox="0 0 310.75 310.75"><defs><style>.cls-1,.cls-2{fill:#231815;}.cls-3{fill:#040000;stroke-width:.25px;}.cls-3,.cls-4{stroke-miterlimit:10;}.cls-3,.cls-4,.cls-5,.cls-2{stroke:#231815;}.cls-4,.cls-5{fill:none;}.cls-4,.cls-5,.cls-2{stroke-width:4px;}.cls-5,.cls-2{stroke-linejoin:round;}</style></defs><polygon class="cls-2" points="301.51 96.19 301.51 96.19 235.9 58.15 235.9 209.81 301.51 96.19"/><polygon class="cls-5" points="235.7 58.19 301.51 96.19 301.51 58.15 235.7 58.19"/><circle class="cls-4" cx="155.48" cy="106.76" r="48.61"/><polygon class="cls-5" points="9.24 214.57 9.24 252.6 74.85 252.6 74.85 100.94 9.24 214.57"/><polygon class="cls-2" points="75.05 252.56 9.24 214.57 9.24 252.6 75.05 252.56"/><ellipse class="cls-4" cx="155.06" cy="131.17" rx="7.46" ry="12.24"/><path class="cls-1" d="M147.9,134.6c.9,5.09,3.77,8.82,7.16,8.82s6.35-3.84,7.21-9.06c-.84-3.17-3.72-5.51-7.15-5.51s-6.46,2.46-7.22,5.75Z"/><g><path class="cls-3" d="M155.06,169.53c-.48,0-.98,.15-1.46,.43-2.1,1.21-4,4.91-4,9.81,0,.05,0,.09,0,.14,1.36-1.51,3.32-2.47,5.51-2.47,2.14,0,4.06,.91,5.41,2.36,0-.01,0-.02,0-.03,0-6.04-2.88-10.24-5.46-10.24Z"/><path class="cls-3" d="M155.28,155.38c-26.85,0-48.61,21.76-48.61,48.61,0,26.85,21.76,48.61,48.61,48.61,26.85,0,48.61-21.76,48.61-48.61,0-26.85-21.76-48.61-48.61-48.61Zm9.25,24.39c0,6.13-2.45,11.24-5.99,13.29-1.07,.62-2.24,.96-3.47,.96-5.31,0-9.46-6.26-9.46-14.24,0-7.99,4.16-14.24,9.46-14.24h0c5.31,0,9.46,6.26,9.46,14.24Z"/></g></svg>